<?xml version="1.0" encoding="UTF-8"?>
<svg width="375" height="812" viewBox="0 0 375 812" fill="none" xmlns="http://www.w3.org/2000/svg">
  <!-- Background -->
  <rect width="375" height="812" fill="#FFFFFF"/>
  
  <!-- Header -->
  <rect x="0" y="0" width="375" height="100" fill="#009688"/>
  <text x="187.5" y="70" text-anchor="middle" font-family="Arial, sans-serif" font-size="20" font-weight="bold" fill="white">検索</text>
  
  <!-- Search Bar -->
  <rect x="16" y="120" width="343" height="48" rx="24" fill="white" stroke="#009688" stroke-width="2"/>
  <circle cx="40" cy="144" r="8" fill="#009688"/>
  <text x="56" y="150" font-family="Arial, sans-serif" font-size="16" fill="#757575">場所やキーワードを入力</text>
  
  <!-- Filter Buttons -->
  <g id="filters">
    <text x="16" y="200" font-family="Arial, sans-serif" font-size="16" font-weight="bold" fill="#212121">カテゴリー</text>
    
    <rect x="16" y="210" width="70" height="32" rx="16" fill="#009688"/>
    <text x="51" y="230" text-anchor="middle" font-family="Arial, sans-serif" font-size="14" fill="white">全て</text>
    
    <rect x="96" y="210" width="80" height="32" rx="16" fill="#E0E0E0"/>
    <text x="136" y="230" text-anchor="middle" font-family="Arial, sans-serif" font-size="14" fill="#757575">観光地</text>
    
    <rect x="186" y="210" width="80" height="32" rx="16" fill="#E0E0E0"/>
    <text x="226" y="230" text-anchor="middle" font-family="Arial, sans-serif" font-size="14" fill="#757575">レストラン</text>
    
    <rect x="276" y="210" width="80" height="32" rx="16" fill="#E0E0E0"/>
    <text x="316" y="230" text-anchor="middle" font-family="Arial, sans-serif" font-size="14" fill="#757575">ショッピング</text>
  </g>
  
  <!-- Search Results -->
  <text x="16" y="280" font-family="Arial, sans-serif" font-size="16" font-weight="bold" fill="#212121">検索結果</text>
  
  <!-- Result Cards -->
  <g id="result1">
    <rect x="16" y="300" width="343" height="100" rx="12" fill="white" stroke="#E0E0E0"/>
    <rect x="32" y="316" width="80" height="68" rx="8" fill="#E0E0E0"/>
    <text x="128" y="328" font-family="Arial, sans-serif" font-size="16" font-weight="bold" fill="#212121">浅草寺</text>
    <text x="128" y="348" font-family="Arial, sans-serif" font-size="14" fill="#757575">東京都台東区浅草</text>
    <text x="128" y="365" font-family="Arial, sans-serif" font-size="12" fill="#9E9E9E">観光地</text>
    <circle cx="128" cy="380" r="6" fill="#F44336"/>
    <text x="142" y="384" font-family="Arial, sans-serif" font-size="12" fill="#757575">12</text>
    <circle cx="170" cy="380" r="6" fill="#FFC107"/>
    <text x="184" y="384" font-family="Arial, sans-serif" font-size="12" fill="#757575">8</text>
  </g>
  
  <g id="result2">
    <rect x="16" y="420" width="343" height="100" rx="12" fill="white" stroke="#E0E0E0"/>
    <rect x="32" y="436" width="80" height="68" rx="8" fill="#E0E0E0"/>
    <text x="128" y="448" font-family="Arial, sans-serif" font-size="16" font-weight="bold" fill="#212121">東京スカイツリー</text>
    <text x="128" y="468" font-family="Arial, sans-serif" font-size="14" fill="#757575">東京都墨田区押上</text>
    <text x="128" y="485" font-family="Arial, sans-serif" font-size="12" fill="#9E9E9E">ランドマーク</text>
    <circle cx="128" cy="500" r="6" fill="#9E9E9E"/>
    <text x="142" y="504" font-family="Arial, sans-serif" font-size="12" fill="#757575">25</text>
    <circle cx="170" cy="500" r="6" fill="#9E9E9E"/>
    <text x="184" y="504" font-family="Arial, sans-serif" font-size="12" fill="#757575">15</text>
  </g>
  
  <g id="result3">
    <rect x="16" y="540" width="343" height="100" rx="12" fill="white" stroke="#E0E0E0"/>
    <rect x="32" y="556" width="80" height="68" rx="8" fill="#E0E0E0"/>
    <text x="128" y="568" font-family="Arial, sans-serif" font-size="16" font-weight="bold" fill="#212121">明治神宮</text>
    <text x="128" y="588" font-family="Arial, sans-serif" font-size="14" fill="#757575">東京都渋谷区代々木神園町</text>
    <text x="128" y="605" font-family="Arial, sans-serif" font-size="12" fill="#9E9E9E">神社</text>
    <circle cx="128" cy="620" r="6" fill="#9E9E9E"/>
    <text x="142" y="624" font-family="Arial, sans-serif" font-size="12" fill="#757575">18</text>
    <circle cx="170" cy="620" r="6" fill="#FFC107"/>
    <text x="184" y="624" font-family="Arial, sans-serif" font-size="12" fill="#757575">10</text>
  </g>
  
  <!-- Bottom Navigation -->
  <rect x="0" y="728" width="375" height="84" fill="white" stroke="#E0E0E0"/>
  <g id="nav-home">
    <rect x="40" y="752" width="30" height="20" rx="4" fill="#9E9E9E"/>
    <text x="55" y="784" text-anchor="middle" font-family="Arial, sans-serif" font-size="12" fill="#9E9E9E">ホーム</text>
  </g>
  <g id="nav-search">
    <rect x="120" y="740" width="70" height="60" fill="#009688" rx="8"/>
    <circle cx="140" cy="762" r="12" fill="white"/>
    <text x="140" y="784" text-anchor="middle" font-family="Arial, sans-serif" font-size="12" fill="#009688">検索</text>
  </g>
  <g id="nav-plan">
    <rect x="220" y="750" width="24" height="24" rx="4" fill="#9E9E9E"/>
    <text x="232" y="784" text-anchor="middle" font-family="Arial, sans-serif" font-size="12" fill="#9E9E9E">プラン</text>
  </g>
  <g id="nav-profile">
    <circle cx="325" cy="762" r="12" fill="#9E9E9E"/>
    <text x="325" y="784" text-anchor="middle" font-family="Arial, sans-serif" font-size="12" fill="#9E9E9E">マイページ</text>
  </g>
</svg>